<?xml version="1.0" standalone="no"?>
<svg xmlns="http://www.w3.org/2000/svg" width="24" height="24"><rect width="24" height="24" opacity="0"></rect><g><path d="M4.22 6.6Q3.48 6.6 2.86 6.97Q2.23 7.34 1.86 7.98Q1.49 8.62 1.49 9.36L1.49 18.24Q1.49 18.98 1.86 19.61Q2.23 20.23 2.86 20.6Q3.48 20.98 4.22 20.98L16.27 20.98Q17.02 20.98 17.64 20.6Q18.26 20.23 18.64 19.61Q19.01 18.98 19.01 18.24L19.01 9.36Q19.01 8.62 18.64 7.98Q18.26 7.34 17.64 6.97Q17.02 6.6 16.27 6.6L4.22 6.6Z" fill="rgba(10,89,247,1)"></path><path d="M7.99 3Q6.84 3 5.92 3.64Q4.99 4.27 4.56 5.3L17.21 5.3Q18.05 5.3 18.76 5.72Q19.46 6.14 19.88 6.85Q20.3 7.56 20.3 8.4L20.3 17.62Q21.29 17.18 21.9 16.26Q22.51 15.34 22.51 14.23L22.51 6.72Q22.51 5.71 22.01 4.86Q21.5 4.01 20.65 3.5Q19.8 3 18.79 3L7.99 3Z" fill="rgba(10,89,247,1)"></path></g></svg>